<svg width="65" height="65" viewBox="0 0 65 65" fill="none" xmlns="http://www.w3.org/2000/svg">
<path id="Vector" fill-rule="evenodd" clip-rule="evenodd" d="M0.116212 5.77408C0.116212 4.34552 0.683703 2.97548 1.69384 1.96533C2.70398 0.955194 4.07403 0.387702 5.50258 0.387702H59.1963C59.9043 0.386546 60.6055 0.525037 61.2599 0.795246C61.9142 1.06545 62.5089 1.46208 63.0097 1.9624C63.5106 2.46272 63.9079 3.05693 64.1788 3.71099C64.4497 4.36505 64.589 5.06612 64.5886 5.77408V59.4678C64.5893 60.1759 64.4505 60.8772 64.18 61.5316C63.9094 62.186 63.5125 62.7806 63.012 63.2814C62.5114 63.7822 61.917 64.1794 61.2628 64.4503C60.6086 64.7212 59.9074 64.8604 59.1993 64.8601H5.50258C4.79499 64.8601 4.09433 64.7206 3.44063 64.4498C2.78694 64.1789 2.19302 63.7819 1.69281 63.2814C1.1926 62.7809 0.795902 62.1868 0.525384 61.5329C0.254865 60.8791 0.115827 60.1783 0.116212 59.4708V5.77408ZM25.6355 24.9693H34.3657V29.3534C35.6258 26.8331 38.8494 24.5648 43.6937 24.5648C52.9806 24.5648 55.1815 29.5849 55.1815 38.7956V55.8574H45.7832V40.8939C45.7832 35.6482 44.523 32.6884 41.3228 32.6884C36.883 32.6884 35.0368 35.8797 35.0368 40.8939V55.8574H25.6355V24.9693ZM9.51745 55.4559H18.9187V24.5648H9.51745V55.453V55.4559ZM20.2638 14.4896C20.2815 15.2945 20.1383 16.0949 19.8425 16.8437C19.5467 17.5926 19.1044 18.2748 18.5413 18.8503C17.9783 19.4259 17.306 19.8832 16.5639 20.1954C15.8217 20.5076 15.0247 20.6684 14.2195 20.6684C13.4144 20.6684 12.6174 20.5076 11.8752 20.1954C11.1331 19.8832 10.4608 19.4259 9.89775 18.8503C9.33473 18.2748 8.89234 17.5926 8.59656 16.8437C8.30077 16.0949 8.15753 15.2945 8.17526 14.4896C8.21005 12.9096 8.86214 11.406 9.99187 10.3009C11.1216 9.19574 12.6392 8.57692 14.2195 8.57692C15.7999 8.57692 17.3175 9.19574 18.4472 10.3009C19.5769 11.406 20.229 12.9096 20.2638 14.4896V14.4896Z" fill="white"/>
</svg>
