<svg width="151" height="152" viewBox="0 0 151 152" fill="none" xmlns="http://www.w3.org/2000/svg">
<g id="fluent:tasks-app-24-filled">
<path id="Vector" d="M111.466 13.3823C115.036 13.3819 118.473 14.7366 121.082 17.1728C123.692 19.6089 125.279 22.9448 125.523 26.5062L125.554 27.4642V90.8796C124.803 91.3805 124.083 91.9691 123.419 92.6328L102.074 113.972L96.3888 108.274C93.8888 105.767 90.5341 104.298 86.9967 104.16H102.074C103.32 104.16 104.514 103.665 105.395 102.785C106.275 101.904 106.77 100.709 106.77 99.464C106.77 98.2185 106.275 97.0241 105.395 96.1434C104.514 95.2627 103.32 94.7679 102.074 94.7679H70.7421C69.4967 94.7679 68.3022 95.2627 67.4215 96.1434C66.5408 97.0241 66.0461 98.2185 66.0461 99.464C66.0461 100.709 66.5408 101.904 67.4215 102.785C68.3022 103.665 69.4967 104.16 70.7421 104.16H85.8509C83.1167 104.272 80.4744 105.178 78.2466 106.767C76.0188 108.356 74.302 110.559 73.3059 113.108C72.3098 115.657 72.0775 118.44 72.6374 121.119C73.1973 123.797 74.5252 126.255 76.4588 128.191L86.8402 138.604H39.4602C35.8904 138.604 32.4536 137.25 29.8443 134.814C27.2349 132.377 25.6477 129.042 25.4034 125.48L25.3721 124.516V27.4705C25.3716 23.9007 26.7264 20.4638 29.1625 17.8545C31.5987 15.2452 34.9345 13.658 38.496 13.4136L39.4602 13.3823H111.466ZM56.679 49.3853C56.679 47.7247 56.0194 46.1321 54.8451 44.9579C53.6709 43.7836 52.0783 43.124 50.4176 43.124C48.757 43.124 47.1644 43.7836 45.9902 44.9579C44.8159 46.1321 44.1563 47.7247 44.1563 49.3853C44.1563 51.046 44.8159 52.6386 45.9902 53.8128C47.1644 54.9871 48.757 55.6467 50.4176 55.6467C52.0783 55.6467 53.6709 54.9871 54.8451 53.8128C56.0194 52.6386 56.679 51.046 56.679 49.3853ZM70.7421 44.683C69.4967 44.683 68.3022 45.1778 67.4215 46.0585C66.5408 46.9392 66.0461 48.1336 66.0461 49.3791C66.0461 50.6246 66.5408 51.819 67.4215 52.6997C68.3022 53.5804 69.4967 54.0751 70.7421 54.0751H102.074C103.32 54.0751 104.514 53.5804 105.395 52.6997C106.275 51.819 106.77 50.6246 106.77 49.3791C106.77 48.1336 106.275 46.9392 105.395 46.0585C104.514 45.1778 103.32 44.683 102.074 44.683H70.7421ZM66.0461 74.4247C66.0461 77.0169 68.1499 79.1207 70.7421 79.1207H102.074C102.691 79.1207 103.301 78.9993 103.871 78.7633C104.441 78.5273 104.959 78.1813 105.395 77.7453C105.831 77.3092 106.177 76.7915 106.413 76.2218C106.649 75.652 106.77 75.0414 106.77 74.4247C106.77 73.808 106.649 73.1973 106.413 72.6276C106.177 72.0578 105.831 71.5401 105.395 71.1041C104.959 70.668 104.441 70.3221 103.871 70.0861C103.301 69.8501 102.691 69.7286 102.074 69.7286H70.7421C69.4967 69.7286 68.3022 70.2234 67.4215 71.1041C66.5408 71.9847 66.0461 73.1792 66.0461 74.4247ZM56.679 74.4247C56.679 72.764 56.0194 71.1714 54.8451 69.9972C53.6709 68.823 52.0783 68.1633 50.4176 68.1633C48.757 68.1633 47.1644 68.823 45.9902 69.9972C44.8159 71.1714 44.1563 72.764 44.1563 74.4247C44.1563 76.0853 44.8159 77.6779 45.9902 78.8521C47.1644 80.0264 48.757 80.6861 50.4176 80.6861C52.0783 80.6861 53.6709 80.0264 54.8451 78.8521C56.0194 77.6779 56.679 76.0853 56.679 74.4247ZM56.679 99.4577C56.679 97.7971 56.0194 96.2045 54.8451 95.0303C53.6709 93.856 52.0783 93.1963 50.4176 93.1963C48.757 93.1963 47.1644 93.856 45.9902 95.0303C44.8159 96.2045 44.1563 97.7971 44.1563 99.4577C44.1563 101.118 44.8159 102.711 45.9902 103.885C47.1644 105.059 48.757 105.719 50.4176 105.719C52.0783 105.719 53.6709 105.059 54.8451 103.885C56.0194 102.711 56.679 101.118 56.679 99.4577ZM102.074 127.265L130.063 99.2761C130.496 98.8278 131.014 98.4703 131.587 98.2245C132.16 97.9787 132.777 97.8494 133.4 97.8443C134.024 97.8392 134.642 97.9583 135.219 98.1947C135.796 98.4311 136.32 98.78 136.761 99.2211C137.202 99.6623 137.55 100.187 137.786 100.764C138.022 101.341 138.14 101.96 138.135 102.583C138.129 103.207 137.999 103.823 137.753 104.396C137.506 104.968 137.148 105.487 136.7 105.919L105.393 137.226C104.512 138.106 103.319 138.6 102.074 138.6C100.83 138.6 99.6361 138.106 98.7556 137.226L83.1021 121.567C82.2726 120.676 81.821 119.499 81.8425 118.282C81.864 117.066 82.3568 115.905 83.2172 115.045C84.0776 114.184 85.2384 113.691 86.455 113.67C87.6716 113.649 88.849 114.1 89.7392 114.93L102.074 127.265Z" fill="black"/>
</g>
</svg>
