<svg width="63" height="63" viewBox="0 0 63 63" fill="none" xmlns="http://www.w3.org/2000/svg">
<g clip-path="url(#clip0_495_821)">
<path d="M11.7749 0.387695C5.48801 0.387695 0.425781 5.44992 0.425781 11.7369V51.1938C0.425781 57.4807 5.48801 62.5429 11.7749 62.5429H33.1602V38.2441H26.7349V29.4958H33.1602V22.0216C33.1602 16.1495 36.9566 10.7579 45.702 10.7579C49.2428 10.7579 51.8612 11.0978 51.8612 11.0978L51.6552 19.2674C51.6552 19.2674 48.9849 19.2422 46.071 19.2422C42.9173 19.2422 42.4116 20.6952 42.4116 23.1075V29.4958H51.9058L51.4921 38.2442H42.4116V62.543H51.2318C57.5187 62.543 62.5809 57.4808 62.5809 51.1938V11.7369C62.5809 5.44999 57.5187 0.387757 51.2318 0.387757H11.7749L11.7749 0.387695Z" fill="white"/>
</g>
<defs>
<clipPath id="clip0_495_821">
<rect width="62.1552" height="62.1552" fill="white" transform="translate(0.425781 0.387695)"/>
</clipPath>
</defs>
</svg>
