<svg width="51" height="52" viewBox="0 0 51 52" fill="none" xmlns="http://www.w3.org/2000/svg">
<g id="entypo:mail">
<path id="Vector" d="M4.06072 13.8277L23.0753 24.0424C23.7142 24.3846 24.5407 24.5469 25.3723 24.5469C26.2038 24.5469 27.0303 24.3846 27.6692 24.0424L46.6838 13.8277C47.9235 13.161 49.0948 10.5674 46.8207 10.5674H3.92635C1.65221 10.5674 2.82351 13.161 4.06072 13.8277V13.8277ZM47.2593 19.413L27.6692 29.6225C26.8072 30.0738 26.2038 30.127 25.3723 30.127C24.5407 30.127 23.9373 30.0738 23.0753 29.6225C22.2133 29.1712 4.99117 20.1431 3.58409 19.4104C2.59533 18.8932 2.60547 19.4992 2.60547 19.9657V38.4554C2.60547 39.5202 4.04044 40.9907 5.14075 40.9907H45.7052C46.8055 40.9907 48.2404 39.5202 48.2404 38.4554V19.9682C48.2404 19.5017 48.2506 18.8958 47.2593 19.413V19.413Z" fill="white"/>
</g>
</svg>
