<svg width="223" height="266" viewBox="0 0 223 266" fill="none" xmlns="http://www.w3.org/2000/svg">
<path id="Vector 9" d="M0.842435 252.719C0.842435 259.946 6.70092 265.804 13.9277 265.804C21.1545 265.804 27.013 259.946 27.013 252.719C27.013 245.492 21.1545 239.634 13.9277 239.634C6.70092 239.634 0.842435 245.492 0.842435 252.719ZM18.7518 5.15759C20.0991 5.30212 21.3085 4.32707 21.453 2.97977C21.5975 1.63248 20.6225 0.423117 19.2752 0.278596L18.7518 5.15759ZM29.7975 3.16492C28.5843 2.56139 27.1116 3.05564 26.5081 4.26884C25.9045 5.48204 26.3988 6.95479 27.612 7.55831L29.7975 3.16492ZM34.4586 13.2817C35.2895 14.3521 36.8308 14.5462 37.9011 13.7153C38.9715 12.8844 39.1656 11.3431 38.3347 10.2727L34.4586 13.2817ZM43.7288 19.3887C43.1343 18.171 41.6652 17.6659 40.4476 18.2604C39.2299 18.855 38.7248 20.324 39.3193 21.5417L43.7288 19.3887ZM43.7549 30.6953C44.3768 31.8992 45.8569 32.371 47.0608 31.749C48.2646 31.1271 48.7364 29.647 48.1145 28.4431L43.7549 30.6953ZM53.1644 36.7494C52.3638 35.6562 50.8285 35.4191 49.7353 36.2197C48.6421 37.0204 48.405 38.5556 49.2056 39.6488L53.1644 36.7494ZM56.3233 47.5002C57.3354 48.4012 58.8863 48.311 59.7872 47.2989C60.6882 46.2868 60.598 44.7359 59.5859 43.835L56.3233 47.5002ZM67.3869 49.4583C66.2165 48.7754 64.7142 49.1706 64.0313 50.341C63.3485 51.5114 63.7437 53.0137 64.9141 53.6966L67.3869 49.4583ZM74.3655 58.2224C75.6277 58.7153 77.0505 58.0916 77.5433 56.8294C78.0362 55.5672 77.4126 54.1444 76.1503 53.6515L74.3655 58.2224ZM85.4671 56.6551C84.1568 56.31 82.8148 57.0925 82.4697 58.4029C82.1246 59.7132 82.9071 61.0552 84.2174 61.4003L85.4671 56.6551ZM94.3764 63.593C95.7115 63.8246 96.9815 62.93 97.2131 61.5949C97.4447 60.2598 96.5501 58.9898 95.215 58.7582L94.3764 63.593ZM105 60.1206C103.653 59.9748 102.442 60.9488 102.297 62.2959C102.151 63.6431 103.125 64.8534 104.472 64.9991L105 60.1206ZM114.651 65.833C116.004 65.9111 117.164 64.8777 117.242 63.525C117.32 62.1722 116.287 61.0122 114.934 60.9342L114.651 65.833ZM124.934 61.3032C123.58 61.2794 122.462 62.3584 122.438 63.7132C122.414 65.068 123.493 66.1856 124.848 66.2094L124.934 61.3032ZM134.911 66.3439C136.265 66.3943 137.404 65.3375 137.454 63.9834C137.505 62.6293 136.448 61.4907 135.094 61.4403L134.911 66.3439ZM144.95 62.1877C143.604 62.0318 142.386 62.9966 142.231 64.3426C142.075 65.6887 143.039 66.9062 144.386 67.0621L144.95 62.1877ZM153.749 68.5475C155.077 68.8176 156.372 67.9601 156.642 66.6322C156.912 65.3044 156.055 64.009 154.727 63.739L153.749 68.5475ZM164.353 66.1618C163.056 65.7693 161.686 66.5026 161.294 67.7996C160.901 69.0965 161.635 70.466 162.932 70.8585L164.353 66.1618ZM171.851 74.0532C173.102 74.5752 174.538 73.9847 175.06 72.7343C175.582 71.4839 174.992 70.047 173.742 69.525L171.851 74.0532ZM182.737 73.8678C181.551 73.2117 180.058 73.6409 179.402 74.8265C178.746 76.0121 179.175 77.5051 180.361 78.1612L182.737 73.8678ZM188.325 83.1969C189.425 83.9883 190.958 83.738 191.749 82.6381C192.54 81.5381 192.29 80.0049 191.19 79.2136L188.325 83.1969ZM198.953 85.5697C197.962 84.6463 196.409 84.7017 195.486 85.6935C194.562 86.6852 194.618 88.2377 195.61 89.161L198.953 85.5697ZM202.05 96.0029C202.91 97.0496 204.456 97.2004 205.503 96.3398C206.55 95.4792 206.701 93.933 205.84 92.8864L202.05 96.0029ZM211.677 101.074C210.969 99.9187 209.459 99.5562 208.304 100.264C207.148 100.972 206.786 102.483 207.494 103.638L211.677 101.074ZM211.81 111.947C212.347 113.191 213.791 113.764 215.035 113.227C216.279 112.689 216.852 111.245 216.314 110.001L211.81 111.947ZM219.632 119.5C219.279 118.192 217.931 117.418 216.623 117.772C215.315 118.126 214.542 119.473 214.896 120.781L219.632 119.5ZM216.688 129.969C216.852 131.314 218.075 132.272 219.42 132.108C220.765 131.944 221.723 130.72 221.559 129.375L216.688 129.969ZM222.071 139.422C222.096 138.068 221.019 136.949 219.664 136.923C218.309 136.898 217.19 137.975 217.165 139.33L222.071 139.422ZM216.35 148.687C216.142 150.026 217.059 151.279 218.398 151.487C219.737 151.695 220.991 150.778 221.199 149.439L216.35 148.687ZM219.023 159.231C219.401 157.93 218.651 156.569 217.35 156.192C216.048 155.815 214.688 156.564 214.31 157.865L219.023 159.231ZM211.144 166.733C210.613 167.98 211.194 169.421 212.441 169.952C213.688 170.482 215.129 169.902 215.659 168.655L211.144 166.733ZM211.234 177.613C211.9 176.433 211.483 174.937 210.303 174.27C209.123 173.604 207.627 174.021 206.961 175.201L211.234 177.613ZM201.879 183.201C201.095 184.307 201.356 185.838 202.462 186.622C203.567 187.405 205.099 187.144 205.882 186.039L201.879 183.201ZM199.761 193.859C200.645 192.832 200.528 191.283 199.501 190.399C198.473 189.516 196.924 189.632 196.041 190.66L199.761 193.859ZM189.557 197.571C188.589 198.52 188.573 200.073 189.522 201.041C190.47 202.009 192.024 202.024 192.991 201.076L189.557 197.571ZM185.669 207.708C186.707 206.837 186.843 205.29 185.972 204.251C185.102 203.213 183.554 203.077 182.516 203.948L185.669 207.708ZM174.991 209.81C173.893 210.605 173.648 212.139 174.443 213.237C175.238 214.334 176.773 214.579 177.87 213.784L174.991 209.81ZM169.648 219.339C170.795 218.616 171.138 217.101 170.416 215.955C169.693 214.809 168.178 214.465 167.032 215.187L169.648 219.339ZM158.787 220.047C157.6 220.701 157.168 222.193 157.822 223.38C158.476 224.567 159.968 224.999 161.155 224.345L158.787 220.047ZM152.458 228.836C153.678 228.246 154.188 226.779 153.599 225.559C153.009 224.339 151.542 223.828 150.322 224.418L152.458 228.836ZM141.539 228.397C140.292 228.926 139.709 230.366 140.238 231.614C140.767 232.861 142.208 233.444 143.455 232.915L141.539 228.397ZM134.322 236.544C135.592 236.071 136.239 234.659 135.767 233.389C135.295 232.119 133.882 231.472 132.612 231.944L134.322 236.544ZM123.579 235.09C122.29 235.509 121.586 236.894 122.005 238.182C122.425 239.471 123.809 240.175 125.098 239.756L123.579 235.09ZM115.582 242.648C116.886 242.279 117.644 240.922 117.275 239.619C116.906 238.315 115.549 237.557 114.246 237.926L115.582 242.648ZM105.07 240.349C103.754 240.672 102.949 242.001 103.272 243.317C103.596 244.633 104.925 245.438 106.24 245.114L105.07 240.349ZM96.5849 247.315C97.9108 247.035 98.7593 245.734 98.48 244.408C98.2008 243.082 96.8995 242.234 95.5736 242.513L96.5849 247.315ZM86.2104 244.335C84.8766 244.574 83.989 245.849 84.2279 247.183C84.4668 248.517 85.7417 249.404 87.0755 249.166L86.2104 244.335ZM77.3203 250.766C78.6605 250.566 79.5846 249.317 79.3843 247.977C79.1841 246.637 77.9354 245.713 76.5952 245.913L77.3203 250.766ZM67.133 247.197C65.788 247.362 64.8311 248.586 64.9957 249.931C65.1604 251.275 66.3841 252.232 67.7291 252.068L67.133 247.197ZM57.8751 253.145C59.2239 253.015 60.2116 251.816 60.0813 250.467C59.951 249.118 58.752 248.131 57.4032 248.261L57.8751 253.145ZM47.9183 249.065C46.5668 249.164 45.5515 250.34 45.6503 251.691C45.7492 253.042 46.9249 254.058 48.2763 253.959L47.9183 249.065ZM38.3772 254.57C39.7305 254.501 40.7722 253.349 40.7039 251.996C40.6355 250.642 39.4831 249.601 38.1298 249.669L38.3772 254.57ZM28.6078 250.05C27.2533 250.09 26.188 251.221 26.2283 252.576C26.2686 253.93 27.3993 254.995 28.7537 254.955L28.6078 250.05ZM18.9372 255.148C20.2921 255.135 21.3798 254.026 21.3665 252.671C21.3533 251.316 20.2441 250.228 18.8892 250.241L18.9372 255.148ZM13.9277 4.91541C15.673 4.91541 17.2759 4.99927 18.7518 5.15759L19.2752 0.278596C17.608 0.099762 15.8294 0.00842357 13.9277 0.00842047L13.9277 4.91541ZM27.612 7.55831C30.4558 8.973 32.6189 10.9119 34.4586 13.2817L38.3347 10.2727C36.1226 7.42305 33.4092 4.96158 29.7975 3.16492L27.612 7.55831ZM39.3193 21.5417C40.68 24.3283 42.1287 27.5476 43.7549 30.6953L48.1145 28.4431C46.5076 25.3328 45.1963 22.3943 43.7288 19.3887L39.3193 21.5417ZM49.2056 39.6488C51.1739 42.3363 53.4944 44.9822 56.3233 47.5002L59.5859 43.835C57.0416 41.5702 54.9501 39.1876 53.1644 36.7494L49.2056 39.6488ZM64.9141 53.6966C67.7135 55.33 70.8449 56.8476 74.3655 58.2224L76.1503 53.6515C72.8521 52.3636 69.9524 50.9551 67.3869 49.4583L64.9141 53.6966ZM84.2174 61.4003C87.354 62.2263 90.7323 62.9609 94.3764 63.593L95.215 58.7582C91.6982 58.1482 88.4576 57.4427 85.4671 56.6551L84.2174 61.4003ZM104.472 64.9991C107.686 65.3469 111.075 65.6266 114.651 65.833L114.934 60.9342C111.435 60.7322 108.127 60.459 105 60.1206L104.472 64.9991ZM124.848 66.2094C126.548 66.2392 128.285 66.2543 130.06 66.2543V61.3474C128.313 61.3474 126.605 61.3325 124.934 61.3032L124.848 66.2094ZM130.06 66.2543C131.697 66.2543 133.315 66.2845 134.911 66.3439L135.094 61.4403C133.436 61.3786 131.757 61.3474 130.06 61.3474V66.2543ZM144.386 67.0621C147.603 67.4347 150.725 67.9325 153.749 68.5475L154.727 63.739C151.563 63.0955 148.303 62.576 144.95 62.1877L144.386 67.0621ZM162.932 70.8585C166.027 71.795 169.001 72.8634 171.851 74.0532L173.742 69.525C170.735 68.2699 167.604 67.1456 164.353 66.1618L162.932 70.8585ZM180.361 78.1612C183.166 79.7137 185.822 81.3965 188.325 83.1969L191.19 79.2136C188.528 77.2985 185.708 75.5124 182.737 73.8678L180.361 78.1612ZM195.61 89.161C197.936 91.3274 200.085 93.6131 202.05 96.0029L205.84 92.8864C203.735 90.3268 201.438 87.8827 198.953 85.5697L195.61 89.161ZM207.494 103.638C209.136 106.317 210.576 109.093 211.81 111.947L216.314 110.001C214.988 106.932 213.44 103.95 211.677 101.074L207.494 103.638ZM214.896 120.781C215.708 123.785 216.308 126.853 216.688 129.969L221.559 129.375C221.151 126.027 220.506 122.729 219.632 119.5L214.896 120.781ZM217.165 139.33C217.107 142.422 216.837 145.546 216.35 148.687L221.199 149.439C221.72 146.082 222.009 142.738 222.071 139.422L217.165 139.33ZM214.31 157.865C213.453 160.823 212.399 163.783 211.144 166.733L215.659 168.655C216.99 165.526 218.11 162.381 219.023 159.231L214.31 157.865ZM206.961 175.201C205.444 177.889 203.751 180.559 201.879 183.201L205.882 186.039C207.85 183.262 209.633 180.45 211.234 177.613L206.961 175.201ZM196.041 190.66C194.031 192.996 191.871 195.303 189.557 197.571L192.991 201.076C195.403 198.712 197.659 196.304 199.761 193.859L196.041 190.66ZM182.516 203.948C180.139 205.941 177.631 207.897 174.991 209.81L177.87 213.784C180.602 211.804 183.201 209.777 185.669 207.708L182.516 203.948ZM167.032 215.187C164.396 216.849 161.648 218.47 158.787 220.047L161.155 224.345C164.099 222.722 166.929 221.052 169.648 219.339L167.032 215.187ZM150.322 224.418C147.492 225.786 144.565 227.114 141.539 228.397L143.455 232.915C146.553 231.601 149.554 230.24 152.458 228.836L150.322 224.418ZM132.612 231.944C129.684 233.033 126.673 234.082 123.579 235.09L125.098 239.756C128.255 238.728 131.33 237.656 134.322 236.544L132.612 231.944ZM114.246 237.926C111.258 238.772 108.2 239.58 105.07 240.349L106.24 245.114C109.425 244.332 112.539 243.509 115.582 242.648L114.246 237.926ZM95.5736 242.513C92.516 243.157 89.3951 243.765 86.2104 244.335L87.0755 249.166C90.3082 248.587 93.4779 247.969 96.5849 247.315L95.5736 242.513ZM76.5952 245.913C73.4977 246.376 70.3438 246.804 67.133 247.197L67.7291 252.068C70.9822 251.67 74.1792 251.235 77.3203 250.766L76.5952 245.913ZM57.4032 248.261C54.2919 248.562 51.1304 248.83 47.9183 249.065L48.2763 253.959C51.5258 253.721 54.7253 253.45 57.8751 253.145L57.4032 248.261ZM38.1298 249.669C35.0013 249.827 31.8274 249.954 28.6078 250.05L28.7537 254.955C32.0067 254.858 35.2145 254.73 38.3772 254.57L38.1298 249.669ZM18.8892 250.241C17.2467 250.257 15.5929 250.266 13.9277 250.266V255.172C15.6088 255.172 17.2786 255.164 18.9372 255.148L18.8892 250.241Z" fill="#404040"/>
</svg>
