<svg width="53" height="53" viewBox="0 0 53 53" fill="none" xmlns="http://www.w3.org/2000/svg">
<path d="M22.5352 23.4441L26.0453 20.2251C27.0059 19.3438 27.6814 18.1957 27.985 16.928C28.2887 15.6603 28.2067 14.3308 27.7497 13.1099L26.2498 9.10585C25.69 7.61185 24.5816 6.38754 23.1504 5.68245C21.7193 4.97736 20.0731 4.84456 18.5474 5.31111C12.9339 7.02855 8.61898 12.2463 9.94714 18.4438C10.8206 22.5199 12.4906 27.6363 15.6589 33.0814C18.3137 37.6673 21.6535 41.8207 25.5628 45.3979C30.2572 49.6703 36.9634 48.6022 41.2782 44.5801C42.4349 43.5017 43.1367 42.0227 43.2406 40.4447C43.3446 38.8668 42.8428 37.3086 41.8376 36.0877L39.0881 32.7477C38.2594 31.7405 37.1486 31.004 35.8983 30.6327C34.648 30.2614 33.3152 30.2722 32.0711 30.6639L27.5305 32.0951C27.3555 31.9152 27.1543 31.7009 26.9319 31.4539C25.9983 30.4211 25.1724 29.296 24.4669 28.0959C23.7805 26.8846 23.2193 25.6065 22.792 24.2815C22.7006 24.0042 22.615 23.7249 22.5352 23.4441V23.4441Z" fill="white"/>
</svg>
