<svg width="152" height="180" viewBox="0 0 152 180" fill="none" xmlns="http://www.w3.org/2000/svg">
<g id="home_work">
<mask id="mask0_1344_1394" style="mask-type:alpha" maskUnits="userSpaceOnUse" x="0" y="0" width="180" height="180">
<rect id="Bounding box" width="180" height="180" fill="#D9D9D9"/>
</mask>
<g mask="url(#mask0_1344_1394)">
<path id="home_work_2" d="M129.188 65.8125H140.812V54.1875H129.188V65.8125ZM129.188 95.8125H140.812V84.1875H129.188V95.8125ZM129.188 125.812H140.812V114.188H129.188V125.812ZM120 150V142.5H157.5V37.5H85.3125V54L77.8125 48.5625V37.5C77.8125 35.375 78.5625 33.5925 80.0625 32.1525C81.5625 30.7175 83.3125 30 85.3125 30H157.5C159.5 30 161.25 30.75 162.75 32.25C164.25 33.75 165 35.5 165 37.5V142.5C165 144.5 164.25 146.25 162.75 147.75C161.25 149.25 159.5 150 157.5 150H120ZM15 144V92.4375C15 90.5625 15.4375 88.7175 16.3125 86.9025C17.1875 85.0925 18.4375 83.6875 20.0625 82.6875L52.875 59.25C55.125 57.75 57.5 57 60 57C62.5 57 64.875 57.75 67.125 59.25L99.9375 82.6875C101.562 83.6875 102.812 85.0925 103.688 86.9025C104.562 88.7175 105 90.5625 105 92.4375V144C105 145.625 104.405 147.03 103.215 148.215C102.03 149.405 100.625 150 99 150H69.5625V116.25H50.4375V150H21C19.375 150 17.9675 149.405 16.7775 148.215C15.5925 147.03 15 145.625 15 144ZM22.5 142.5H42.9375V108.75H77.0625V142.5H97.5V90L60 63.75L22.5 90V142.5Z" fill="black" fill-opacity="0.05"/>
</g>
</g>
</svg>
