<svg width="73" height="73" viewBox="0 0 73 73" fill="none" xmlns="http://www.w3.org/2000/svg">
<g id="akar-icons:instagram-fill">
<path id="Vector" fill-rule="evenodd" clip-rule="evenodd" d="M23.0996 3.67643C26.6171 3.5145 27.7386 3.47852 36.6987 3.47852C45.6589 3.47852 46.7804 3.5175 50.2949 3.67643C53.8094 3.83536 56.2084 4.39612 58.3075 5.20877C60.5055 6.03942 62.4997 7.33786 64.149 9.01714C65.8283 10.6634 67.1237 12.6546 67.9513 14.8556C68.767 16.9547 69.3248 19.3537 69.4867 22.8622C69.6486 26.3857 69.6846 27.5072 69.6846 36.4644C69.6846 45.4245 69.6456 46.546 69.4867 50.0635C69.3278 53.572 68.767 55.971 67.9513 58.0701C67.1237 60.2714 65.8261 62.2659 64.149 63.9146C62.4997 65.5939 60.5055 66.8893 58.3075 67.717C56.2084 68.5326 53.8094 69.0904 50.3009 69.2523C46.7804 69.4142 45.6589 69.4502 36.6987 69.4502C27.7386 69.4502 26.6171 69.4112 23.0996 69.2523C19.5911 69.0934 17.1921 68.5326 15.093 67.717C12.8917 66.8892 10.8973 65.5916 9.24852 63.9146C7.57038 62.2673 6.27174 60.2738 5.44315 58.0731C4.6305 55.974 4.07274 53.575 3.91081 50.0665C3.74888 46.543 3.71289 45.4215 3.71289 36.4644C3.71289 27.5042 3.75187 26.3827 3.91081 22.8682C4.06974 19.3537 4.6305 16.9547 5.44315 14.8556C6.27296 12.6548 7.57259 10.6614 9.25152 9.01414C10.8979 7.33636 12.8904 6.03775 15.09 5.20877C17.1891 4.39612 19.5881 3.83836 23.0966 3.67643H23.0996ZM50.028 9.61388C46.5495 9.45495 45.506 9.42197 36.6987 9.42197C27.8915 9.42197 26.848 9.45495 23.3695 9.61388C20.1518 9.76082 18.4066 10.2976 17.2431 10.7504C15.7047 11.3501 14.6042 12.0608 13.4497 13.2153C12.3553 14.28 11.5131 15.5762 10.9848 17.0087C10.532 18.1722 9.9952 19.9175 9.84826 23.1351C9.68933 26.6136 9.65634 27.6571 9.65634 36.4644C9.65634 45.2716 9.68933 46.3151 9.84826 49.7937C9.9952 53.0113 10.532 54.7565 10.9848 55.92C11.5125 57.3504 12.3552 58.6489 13.4497 59.7134C14.5143 60.8079 15.8127 61.6506 17.2431 62.1783C18.4066 62.6312 20.1518 63.1679 23.3695 63.3149C26.848 63.4738 27.8885 63.5068 36.6987 63.5068C45.509 63.5068 46.5495 63.4738 50.028 63.3149C53.2457 63.1679 54.9909 62.6312 56.1544 62.1783C57.6927 61.5786 58.7933 60.8679 59.9478 59.7134C61.0423 58.6489 61.8849 57.3504 62.4127 55.92C62.8655 54.7565 63.4023 53.0113 63.5492 49.7937C63.7082 46.3151 63.7412 45.2716 63.7412 36.4644C63.7412 27.6571 63.7082 26.6136 63.5492 23.1351C63.4023 19.9175 62.8655 18.1722 62.4127 17.0087C61.813 15.4704 61.1023 14.3698 59.9478 13.2153C58.883 12.121 57.5869 11.2788 56.1544 10.7504C54.9909 10.2976 53.2457 9.76082 50.028 9.61388V9.61388ZM32.4856 46.633C34.8385 47.6125 37.4586 47.7447 39.8982 47.007C42.3378 46.2694 44.4456 44.7076 45.8616 42.5885C47.2777 40.4694 47.9141 37.9244 47.6622 35.3881C47.4103 32.8519 46.2857 30.4819 44.4804 28.6827C43.3296 27.5326 41.9381 26.652 40.4062 26.1043C38.8742 25.5565 37.2398 25.3552 35.6207 25.5149C34.0016 25.6746 32.438 26.1913 31.0426 27.0278C29.6471 27.8643 28.4545 28.9998 27.5506 30.3525C26.6466 31.7053 26.0539 33.2416 25.815 34.8509C25.576 36.4603 25.6969 38.1025 26.1689 39.6596C26.6408 41.2166 27.4522 42.6495 28.5444 43.8554C29.6367 45.0612 30.9827 46.0098 32.4856 46.633ZM24.7099 24.4755C26.2843 22.9011 28.1534 21.6522 30.2104 20.8002C32.2675 19.9481 34.4722 19.5096 36.6987 19.5096C38.9253 19.5096 41.13 19.9481 43.1871 20.8002C45.2441 21.6522 47.1132 22.9011 48.6876 24.4755C50.262 26.0499 51.5109 27.919 52.3629 29.976C53.215 32.0331 53.6536 34.2378 53.6536 36.4644C53.6536 38.6909 53.215 40.8956 52.3629 42.9527C51.5109 45.0097 50.262 46.8788 48.6876 48.4532C45.508 51.6329 41.1954 53.4192 36.6987 53.4192C32.2021 53.4192 27.8895 51.6329 24.7099 48.4532C21.5302 45.2736 19.7439 40.9611 19.7439 36.4644C19.7439 31.9677 21.5302 27.6552 24.7099 24.4755V24.4755ZM57.4139 22.0346C57.804 21.6665 58.1163 21.2239 58.3324 20.733C58.5484 20.2421 58.6638 19.7129 58.6716 19.1766C58.6794 18.6403 58.5795 18.1079 58.3779 17.6109C58.1763 17.1139 57.877 16.6624 57.4977 16.2831C57.1185 15.9039 56.667 15.6046 56.17 15.403C55.673 15.2013 55.1406 15.1015 54.6043 15.1093C54.068 15.1171 53.5387 15.2324 53.0478 15.4485C52.5569 15.6645 52.1143 15.9768 51.7463 16.367C51.0305 17.1258 50.6387 18.1336 50.6539 19.1766C50.6691 20.2196 51.0902 21.2155 51.8277 21.9531C52.5653 22.6907 53.5613 23.1118 54.6043 23.127C55.6473 23.1422 56.6551 22.7503 57.4139 22.0346V22.0346Z" fill="white"/>
</g>
</svg>
