<svg width="132" height="180" viewBox="0 0 132 180" fill="none" xmlns="http://www.w3.org/2000/svg">
<g id="security">
<mask id="mask0_1344_1430" style="mask-type:alpha" maskUnits="userSpaceOnUse" x="0" y="0" width="180" height="180">
<rect id="Bounding box" width="180" height="180" fill="#D9D9D9"/>
</mask>
<g mask="url(#mask0_1344_1430)">
<path id="security_2" d="M90 156.188C88.875 156.188 87.875 156.095 87 155.91C86.125 155.72 85.3125 155.5 84.5625 155.25C70.9375 149.75 59.6875 140.438 50.8125 127.313C41.9375 114.188 37.5 99.5 37.5 83.25V51.1875C37.5 48.5625 38.25 46.2175 39.75 44.1525C41.25 42.0925 43.125 40.625 45.375 39.75L85.6875 24.75C87.1875 24.25 88.625 24 90 24C91.375 24 92.8125 24.25 94.3125 24.75L134.625 39.75C136.875 40.625 138.75 42.0925 140.25 44.1525C141.75 46.2175 142.5 48.5625 142.5 51.1875V83.25C142.5 99.5 138.062 114.188 129.188 127.313C120.312 140.438 109.062 149.75 95.4375 155.25C94.6875 155.5 93.875 155.72 93 155.91C92.125 156.095 91.125 156.188 90 156.188ZM90 149.25C102.125 145.5 112.25 138.095 120.375 127.035C128.5 115.97 133.25 103.625 134.625 90H90V31.125L48 46.6875C47 47.0625 46.25 47.625 45.75 48.375C45.25 49.125 45 50 45 51V86.4375C45 87.4375 45.125 88.625 45.375 90H90V149.25Z" fill="black" fill-opacity="0.05"/>
</g>
</g>
</svg>
